<?xml version="1.0" standalone="no"?>
<!DOCTYPE svg PUBLIC "-//W3C//DTD SVG 20010904//EN"
 "http://www.w3.org/TR/2001/REC-SVG-20010904/DTD/svg10.dtd">
<svg version="1.0" xmlns="http://www.w3.org/2000/svg"
 width="46.000000pt" height="60.000000pt" viewBox="0 0 46.000000 60.000000"
 preserveAspectRatio="xMidYMid meet">

<g transform="translate(0.000000,60.000000) scale(0.100000,-0.100000)"
fill="#000000" stroke="none">
<path d="M208 579 c-7 -11 -31 -28 -53 -38 -41 -18 -97 -68 -116 -102 -5 -11
14 5 44 36 54 55 81 70 71 38 -2 -10 1 -8 7 5 7 12 16 22 21 22 14 0 30 -52
23 -78 -6 -25 -22 -21 -33 8 -6 15 -10 12 -24 -16 -17 -33 -17 -35 2 -54 11
-11 28 -20 38 -19 11 0 8 4 -10 10 -30 12 -40 30 -27 50 8 11 13 10 28 -9 l20
-22 6 22 c14 48 49 108 62 108 53 0 120 -74 133 -147 l9 -48 -3 48 c-5 60 -43
112 -106 145 -25 12 -48 31 -52 42 -9 26 -25 25 -40 -1z m34 -6 c6 -24 -12
-74 -23 -67 -10 6 -12 67 -2 77 11 12 21 8 25 -10z"/>
<path d="M11 358 c-1 -30 6 -46 34 -77 l35 -39 -30 -12 c-40 -16 -57 -37 -42
-52 8 -8 20 -8 44 0 l33 11 -37 -6 c-24 -3 -38 -1 -38 6 0 15 76 52 94 45 18
-7 29 -50 25 -105 -4 -46 7 -57 64 -61 32 -2 36 -5 31 -23 -4 -16 1 -24 21
-33 15 -7 24 -8 20 -2 -4 6 7 10 25 10 39 0 45 15 32 87 -8 45 -7 65 4 88 8
17 9 22 2 11 -48 -74 -117 -89 -169 -37 -37 38 -37 48 4 45 l32 -3 -30 8 c-82
22 -135 71 -146 134 l-6 42 -2 -37z m239 -242 c0 -8 -4 -18 -10 -21 -5 -3 -10
3 -10 14 0 12 5 21 10 21 6 0 10 -6 10 -14z"/>
<path d="M238 338 c-7 -19 2 -38 17 -38 15 0 24 19 18 38 -3 6 -11 12 -18 12
-7 0 -15 -6 -17 -12z"/>
<path d="M120 315 c0 -15 6 -25 14 -25 19 0 28 14 20 34 -10 25 -34 19 -34 -9z"/>
<path d="M380 310 c-16 -38 -60 -70 -119 -86 -25 -7 -38 -13 -27 -13 27 -1 96
21 96 31 0 4 12 8 28 9 15 0 22 3 15 5 -8 4 -5 16 9 40 11 19 18 37 16 40 -3
2 -11 -9 -18 -26z"/>
<path d="M213 283 c19 -5 21 -12 8 -32 -7 -10 -12 -8 -25 10 -9 13 -16 19 -16
13 0 -6 9 -19 19 -28 19 -17 20 -17 30 3 17 30 13 41 -11 40 -17 -1 -19 -2 -5
-6z"/>
<path d="M433 229 c25 -15 21 -29 -10 -30 -26 -2 -26 -2 -4 -6 31 -6 48 11 31
32 -7 8 -18 15 -24 15 -6 0 -3 -5 7 -11z"/>
<path d="M358 203 c6 -2 18 -2 25 0 6 3 1 5 -13 5 -14 0 -19 -2 -12 -5z"/>
</g>
</svg>
